<?xml version="1.0" standalone="no"?>
<!DOCTYPE svg PUBLIC "-//W3C//DTD SVG 20010904//EN"
 "http://www.w3.org/TR/2001/REC-SVG-20010904/DTD/svg10.dtd">
<svg version="1.0" xmlns="http://www.w3.org/2000/svg"
 width="500.000000pt" height="500.000000pt" viewBox="0 0 500.000000 500.000000"
 preserveAspectRatio="xMidYMid meet">
<metadata>
Created by potrace 1.14, written by Peter Selinger 2001-2017
</metadata>
<g transform="translate(0.000000,500.000000) scale(0.100000,-0.100000)"
fill="#000000" stroke="none">
<path d="M3607 4683 c-2 -1 -57 -5 -122 -8 -142 -6 -269 -14 -345 -20 -30 -3
-89 -7 -130 -10 -413 -27 -786 -167 -1125 -420 -22 -16 -42 -32 -45 -35 -3 -3
-23 -20 -45 -39 -299 -253 -572 -644 -665 -956 -93 -308 -144 -493 -157 -565
-2 -14 -7 -38 -11 -55 -6 -27 -7 -52 -3 -92 1 -9 27 -12 104 -8 269 11 366 16
412 20 28 2 124 7 215 11 l165 6 -84 -83 c-344 -341 -558 -673 -689 -1064 -26
-78 -35 -108 -48 -160 -7 -29 -43 -215 -49 -250 -3 -22 -9 -176 -12 -342 l-5
-303 549 0 550 0 -5 68 c-10 155 -3 391 14 476 2 12 7 37 10 56 27 166 118
379 223 520 45 61 154 165 216 207 51 34 138 84 155 88 3 1 22 9 42 18 21 10
43 17 51 17 7 0 17 4 22 8 11 9 117 38 174 47 19 3 37 7 40 9 8 5 106 16 229
25 53 4 255 7 447 7 l351 -1 -1 542 c0 298 -3 544 -6 548 -17 16 -787 8 -954
-10 -157 -17 -224 -25 -258 -31 -94 -15 -289 -58 -345 -76 -36 -11 -72 -21
-81 -23 -40 -9 -203 -75 -264 -107 -15 -8 -17 -6 -11 19 17 71 80 223 126 302
115 195 248 329 421 426 84 46 291 103 437 120 30 3 62 8 70 10 45 14 456 21
625 11 61 -3 212 -16 240 -20 11 -1 11 1101 0 1113 -6 6 -422 10 -428 4z"/>
</g>
</svg>
