<svg xmlns="http://www.w3.org/2000/svg" viewBox="0 0 200 200">
  <defs>
    <linearGradient id="logoGradient" x1="0%" y1="0%" x2="100%" y2="100%">
      <stop offset="0%" style="stop-color:#4AA5FF"/>
      <stop offset="100%" style="stop-color:#7667AB"/>
    </linearGradient>
  </defs>
  <path d="M40 0 C17.909 0 0 17.909 0 40 V160 C0 182.091 17.909 200 40 200 H160 C182.091 200 200 182.091 200 160 V40 C200 17.909 182.091 0 160 0 H40 Z M60 20 Q80 20 100 40 Q120 60 140 60 V100 Q120 100 100 120 Q80 140 60 140 V180 H140 Q160 180 180 160 V40 Q180 20 160 20 H60 Z" fill="url(#logoGradient)"/>
  <path d="M80 40 H120 V80 H100 V120 H120 V160 H100 V80 H80 V40 Z" fill="white"/>
</svg>